<?xml version="1.0" encoding="utf-8"?>
<!-- Generator: Adobe Illustrator 25.2.1, SVG Export Plug-In . SVG Version: 6.00 Build 0)  -->
<svg version="1.1" id="Capa_1" xmlns="http://www.w3.org/2000/svg" xmlns:xlink="http://www.w3.org/1999/xlink" x="0px" y="0px"
	 viewBox="0 0 203.7 37.2" style="enable-background:new 0 0 203.7 37.2;" xml:space="preserve">
<style type="text/css">
	.st0{fill:#1D1D1B;}
	.st1{fill:url(#SVGID_1_);}
	.st2{fill:url(#SVGID_2_);}
	.st3{fill:url(#SVGID_3_);}
	.st4{fill:url(#SVGID_4_);}
	.st5{fill:url(#SVGID_5_);}
	.st6{fill:url(#SVGID_6_);}
	.st7{fill:url(#SVGID_7_);}
</style>
<g>
	<g>
		<g>
			<path class="st0" d="M56,23.2c0,1-0.3,1.9-0.8,2.6c-0.5,0.7-1.3,1.2-2.2,1.6c-0.9,0.4-1.9,0.5-3,0.5h-9V9.4H51
				c0.9,0,1.6,0.2,2.3,0.7c0.6,0.5,1.1,1.1,1.5,1.8c0.3,0.7,0.5,1.5,0.5,2.3c0,0.9-0.2,1.7-0.7,2.5c-0.5,0.8-1.1,1.4-2,1.8
				c1.1,0.3,1.9,0.9,2.5,1.7C55.7,21,56,22,56,23.2z M44.7,12.5v4.7h4.8c0.4,0,0.8-0.1,1.1-0.3c0.3-0.2,0.6-0.5,0.8-0.8
				c0.2-0.3,0.3-0.8,0.3-1.2c0-0.5-0.1-0.9-0.3-1.2c-0.2-0.3-0.4-0.6-0.7-0.8c-0.3-0.2-0.6-0.3-1-0.3H44.7z M52.4,22.5
				c0-0.5-0.1-0.9-0.3-1.3c-0.2-0.4-0.4-0.7-0.8-0.9C51,20.1,50.7,20,50.2,20h-5.5v4.9h5.4c0.4,0,0.8-0.1,1.2-0.3
				c0.4-0.2,0.6-0.5,0.8-0.9C52.3,23.3,52.4,22.9,52.4,22.5z"/>
			<path class="st0" d="M57.6,23.9c0-0.9,0.2-1.6,0.7-2.3c0.5-0.7,1.2-1.2,2.1-1.5c0.9-0.4,1.9-0.6,3.1-0.6c0.6,0,1.2,0,1.8,0.1
				c0.6,0.1,1.1,0.2,1.5,0.4v-0.8c0-0.8-0.3-1.5-0.8-1.9c-0.5-0.5-1.3-0.7-2.3-0.7c-0.8,0-1.5,0.1-2.2,0.4c-0.7,0.3-1.4,0.6-2.1,1.1
				L58.3,16c0.9-0.6,1.8-1.1,2.8-1.3c0.9-0.3,1.9-0.4,3-0.4c2,0,3.5,0.5,4.6,1.4c1.1,1,1.6,2.3,1.6,4.1V24c0,0.4,0.1,0.6,0.2,0.8
				c0.1,0.2,0.3,0.2,0.6,0.3v2.8c-0.3,0.1-0.6,0.1-0.8,0.1c-0.3,0-0.5,0-0.6,0c-0.7,0-1.2-0.2-1.6-0.5c-0.4-0.3-0.6-0.7-0.6-1.1
				l-0.1-0.7c-0.6,0.8-1.4,1.4-2.2,1.8c-0.9,0.4-1.8,0.6-2.7,0.6c-0.9,0-1.7-0.2-2.4-0.6c-0.7-0.4-1.3-0.9-1.7-1.5
				S57.6,24.7,57.6,23.9z M66.1,24.6c0.2-0.2,0.3-0.4,0.5-0.6c0.1-0.2,0.2-0.4,0.2-0.6v-1.4c-0.4-0.2-0.9-0.3-1.4-0.4
				c-0.5-0.1-1-0.1-1.4-0.1c-0.9,0-1.7,0.2-2.2,0.6c-0.6,0.4-0.9,0.9-0.9,1.5c0,0.3,0.1,0.7,0.3,1c0.2,0.3,0.5,0.6,0.8,0.8
				c0.4,0.2,0.8,0.3,1.3,0.3c0.5,0,1-0.1,1.5-0.3C65.4,25.2,65.8,24.9,66.1,24.6z"/>
			<path class="st0" d="M78.6,28.2c-1.2,0-2.3-0.2-3.4-0.6c-1.1-0.4-2-0.9-2.7-1.7l1.3-2.3c0.8,0.7,1.6,1.1,2.4,1.5
				c0.8,0.3,1.6,0.5,2.3,0.5c0.7,0,1.2-0.1,1.6-0.4c0.4-0.2,0.6-0.6,0.6-1.1c0-0.3-0.1-0.6-0.3-0.8c-0.2-0.2-0.6-0.3-1-0.5
				c-0.4-0.1-0.9-0.3-1.6-0.5c-1-0.3-1.9-0.6-2.5-0.9c-0.7-0.3-1.2-0.7-1.5-1.2c-0.3-0.5-0.5-1.1-0.5-1.8c0-0.9,0.2-1.7,0.7-2.3
				c0.5-0.6,1.1-1.1,1.9-1.5c0.8-0.4,1.8-0.5,2.9-0.5c1,0,1.9,0.2,2.8,0.5c0.9,0.3,1.7,0.8,2.4,1.5l-1.4,2.2c-0.7-0.6-1.3-1-2-1.2
				c-0.6-0.3-1.3-0.4-1.9-0.4c-0.4,0-0.7,0-1,0.1c-0.3,0.1-0.6,0.2-0.8,0.4c-0.2,0.2-0.3,0.5-0.3,0.8c0,0.3,0.1,0.6,0.3,0.7
				c0.2,0.2,0.5,0.4,0.8,0.5s0.8,0.3,1.4,0.5c1.1,0.3,2,0.6,2.8,0.9c0.7,0.3,1.3,0.7,1.7,1.2c0.4,0.5,0.6,1.1,0.6,2
				c0,1.3-0.5,2.4-1.5,3.1C81.6,27.8,80.2,28.2,78.6,28.2z"/>
			<path class="st0" d="M92.8,28.2c-1.1,0-2.1-0.2-3-0.6c-0.9-0.4-1.6-0.9-2.3-1.5c-0.6-0.6-1.1-1.4-1.4-2.2
				c-0.3-0.8-0.5-1.7-0.5-2.7c0-1.3,0.3-2.5,0.9-3.5c0.6-1.1,1.4-1.9,2.5-2.6c1.1-0.6,2.4-1,3.9-1c1.5,0,2.8,0.3,3.8,1
				c1.1,0.6,1.9,1.5,2.5,2.5c0.6,1.1,0.9,2.2,0.9,3.4c0,0.2,0,0.4,0,0.6c0,0.2,0,0.4-0.1,0.5H89.3c0.1,0.7,0.2,1.3,0.6,1.8
				c0.3,0.5,0.8,0.9,1.3,1.2c0.5,0.3,1.1,0.4,1.7,0.4c0.7,0,1.4-0.2,2-0.5c0.6-0.3,1-0.8,1.3-1.4l3,0.8c-0.3,0.7-0.8,1.3-1.4,1.9
				c-0.6,0.5-1.3,1-2.2,1.3C94.7,28.1,93.8,28.2,92.8,28.2z M89.2,20.1h7.2c-0.1-0.7-0.3-1.3-0.6-1.8c-0.3-0.5-0.7-0.9-1.3-1.2
				c-0.5-0.3-1.1-0.4-1.7-0.4c-0.6,0-1.2,0.1-1.7,0.4c-0.5,0.3-0.9,0.7-1.3,1.2C89.5,18.8,89.3,19.4,89.2,20.1z"/>
			<path class="st0" d="M102.1,8.9h3.5v14.7c0,0.6,0.1,1.1,0.3,1.3c0.2,0.2,0.5,0.3,0.8,0.3c0.3,0,0.6,0,0.9-0.1
				c0.3-0.1,0.5-0.2,0.8-0.3l0.5,2.7c-0.5,0.2-1,0.4-1.6,0.5c-0.6,0.1-1.2,0.2-1.7,0.2c-1.1,0-1.9-0.3-2.5-0.9
				c-0.6-0.6-0.9-1.4-0.9-2.5V8.9z"/>
		</g>
		<g>
			<path class="st0" d="M126.9,22.9c0,0.9-0.2,1.7-0.7,2.5c-0.5,0.7-1.1,1.3-1.9,1.7c-0.8,0.4-1.7,0.6-2.6,0.6H113V9.1h8.9
				c0.9,0,1.6,0.2,2.3,0.7c0.6,0.5,1.1,1.1,1.5,1.8c0.3,0.7,0.5,1.5,0.5,2.3c0,0.9-0.2,1.8-0.7,2.6c-0.5,0.8-1.1,1.4-2,1.7
				c1.1,0.3,1.9,0.9,2.5,1.8C126.6,20.7,126.9,21.7,126.9,22.9z M114.8,10.7v6.8h6.4c0.6,0,1.1-0.2,1.6-0.5c0.5-0.3,0.8-0.7,1.1-1.3
				c0.3-0.5,0.4-1.1,0.4-1.7c0-0.6-0.1-1.2-0.4-1.7c-0.3-0.5-0.6-0.9-1.1-1.2c-0.5-0.3-1-0.5-1.5-0.5H114.8z M125.1,22.6
				c0-0.6-0.1-1.2-0.4-1.7c-0.3-0.5-0.7-1-1.1-1.3s-1-0.5-1.6-0.5h-7.1v7h6.9c0.6,0,1.2-0.2,1.7-0.5c0.5-0.3,0.9-0.8,1.2-1.3
				C124.9,23.7,125.1,23.2,125.1,22.6z"/>
			<path class="st0" d="M128.9,23.8c0-0.8,0.2-1.6,0.7-2.2c0.5-0.6,1.2-1.1,2-1.4c0.9-0.3,1.9-0.5,3-0.5c0.7,0,1.3,0.1,2.1,0.2
				c0.7,0.1,1.4,0.3,1.9,0.5v-1.1c0-1.1-0.3-2.1-1-2.7c-0.7-0.7-1.6-1-2.8-1c-0.7,0-1.5,0.1-2.2,0.4c-0.7,0.3-1.4,0.7-2.2,1.2
				l-0.7-1.3c0.9-0.6,1.8-1.1,2.6-1.4c0.9-0.3,1.7-0.5,2.6-0.5c1.7,0,3,0.5,4,1.4c1,1,1.5,2.3,1.5,3.9v6.3c0,0.2,0.1,0.4,0.2,0.5
				c0.1,0.1,0.3,0.2,0.5,0.2v1.4c-0.2,0-0.4,0-0.5,0.1c-0.1,0-0.2,0-0.3,0c-0.4,0-0.8-0.2-1-0.4s-0.3-0.5-0.4-0.8l0-1
				c-0.6,0.8-1.4,1.4-2.4,1.8c-1,0.4-2,0.6-3,0.6c-0.9,0-1.7-0.2-2.4-0.6c-0.7-0.4-1.3-0.9-1.6-1.5
				C129.1,25.2,128.9,24.5,128.9,23.8z M138,24.8c0.2-0.2,0.3-0.5,0.4-0.7c0.1-0.2,0.2-0.4,0.2-0.6v-2c-0.6-0.2-1.2-0.4-1.8-0.5
				c-0.6-0.1-1.3-0.2-1.9-0.2c-1.3,0-2.3,0.2-3.1,0.8c-0.8,0.5-1.2,1.2-1.2,2c0,0.5,0.1,1,0.4,1.4c0.3,0.4,0.6,0.8,1.1,1.1
				c0.5,0.3,1.1,0.4,1.8,0.4c0.9,0,1.7-0.2,2.4-0.5C137,25.7,137.6,25.3,138,24.8z"/>
			<path class="st0" d="M155.7,27.7h-1.8v-7.6c0-1.6-0.2-2.8-0.7-3.5c-0.5-0.7-1.2-1.1-2.2-1.1c-0.7,0-1.4,0.2-2.1,0.5
				c-0.7,0.3-1.3,0.8-1.8,1.4c-0.5,0.6-0.9,1.2-1.1,2v8.3h-1.8V14.1h1.6v3.1c0.4-0.7,0.8-1.2,1.4-1.7c0.6-0.5,1.3-0.9,2-1.2
				c0.7-0.3,1.5-0.4,2.3-0.4c0.7,0,1.4,0.1,1.9,0.4c0.5,0.3,0.9,0.7,1.3,1.2c0.3,0.5,0.5,1.1,0.7,1.8c0.1,0.7,0.2,1.5,0.2,2.4V27.7z
				"/>
			<path class="st0" d="M164.7,27.9c-0.9,0-1.8-0.2-2.5-0.6c-0.8-0.4-1.4-0.9-1.9-1.6c-0.5-0.7-1-1.4-1.3-2.2
				c-0.3-0.8-0.4-1.7-0.4-2.6c0-1,0.2-1.8,0.5-2.7c0.3-0.8,0.8-1.6,1.4-2.2c0.6-0.6,1.3-1.2,2.1-1.5c0.8-0.4,1.6-0.6,2.5-0.6
				c1.1,0,2,0.3,2.9,0.8c0.9,0.5,1.6,1.2,2.1,2.1v-2.7h1.6v19.1h-1.8v-8.4C168.5,26.9,166.8,27.9,164.7,27.9z M165.3,26.3
				c0.7,0,1.4-0.1,1.9-0.4c0.6-0.3,1.1-0.7,1.5-1.2c0.4-0.5,0.8-1,1.1-1.6V19c-0.1-0.5-0.2-0.9-0.5-1.3c-0.3-0.4-0.7-0.8-1.1-1.1
				c-0.4-0.3-0.9-0.6-1.4-0.8c-0.5-0.2-1-0.3-1.5-0.3c-0.7,0-1.4,0.2-2,0.5c-0.6,0.3-1.1,0.7-1.6,1.2s-0.8,1.1-1,1.8
				c-0.2,0.7-0.4,1.3-0.4,2c0,1,0.2,1.9,0.6,2.7c0.4,0.8,1,1.5,1.7,2C163.5,26.1,164.3,26.3,165.3,26.3z"/>
			<path class="st0" d="M175.5,22.1v-8h1.8v7.6c0,1.5,0.3,2.7,0.8,3.5c0.5,0.8,1.3,1.1,2.4,1.1c0.7,0,1.4-0.2,2-0.5
				c0.7-0.3,1.2-0.7,1.7-1.3c0.5-0.6,0.9-1.2,1.1-2v-8.5h1.8v11.4c0,0.2,0.1,0.4,0.2,0.5c0.1,0.1,0.3,0.2,0.5,0.2v1.4
				c-0.2,0-0.4,0-0.5,0c-0.1,0-0.2,0-0.3,0c-0.3,0-0.6-0.2-0.9-0.4c-0.3-0.2-0.4-0.5-0.4-0.9l-0.1-1.8c-0.6,1-1.4,1.9-2.4,2.4
				c-1,0.6-2.1,0.9-3.3,0.9c-1.4,0-2.5-0.5-3.2-1.5C175.8,25.4,175.5,24,175.5,22.1z"/>
			<path class="st0" d="M197,27.9c-1,0-1.9-0.2-2.7-0.6c-0.8-0.4-1.6-0.9-2.2-1.5c-0.6-0.7-1.1-1.4-1.4-2.3
				c-0.3-0.9-0.5-1.8-0.5-2.7c0-1.3,0.3-2.4,0.9-3.5c0.6-1.1,1.4-1.9,2.4-2.5s2.2-0.9,3.5-0.9c1.3,0,2.5,0.3,3.5,1
				c1,0.6,1.8,1.5,2.4,2.5c0.6,1,0.9,2.2,0.9,3.4c0,0.1,0,0.3,0,0.4s0,0.2,0,0.3H192c0.1,1,0.4,1.8,0.8,2.6c0.5,0.8,1.1,1.4,1.8,1.8
				c0.7,0.4,1.5,0.7,2.4,0.7c0.9,0,1.7-0.2,2.5-0.7c0.8-0.5,1.3-1,1.7-1.8l1.5,0.4c-0.3,0.6-0.7,1.2-1.3,1.7c-0.6,0.5-1.2,0.9-2,1.2
				C198.7,27.8,197.9,27.9,197,27.9z M192,20.2H202c-0.1-1-0.3-1.8-0.8-2.6c-0.5-0.7-1.1-1.3-1.8-1.7c-0.7-0.4-1.6-0.6-2.4-0.6
				c-0.9,0-1.7,0.2-2.4,0.6c-0.7,0.4-1.3,1-1.8,1.8C192.3,18.4,192,19.3,192,20.2z"/>
		</g>
	</g>
	<g>
		<linearGradient id="SVGID_1_" gradientUnits="userSpaceOnUse" x1="-2.6034" y1="-2.5386" x2="36.3702" y2="36.4351">
			<stop  offset="0" style="stop-color:#0095C1"/>
			<stop  offset="1" style="stop-color:#3B3681"/>
		</linearGradient>
		<path class="st1" d="M37,18.8v-0.5c0-6.5-3.5-12.4-9.1-15.7l-0.4-0.2C22-0.8,15.1-0.8,9.5,2.4L9.1,2.7C3.5,5.9,0,11.9,0,18.3
			l0,0.5c0,6.5,3.5,12.4,9.1,15.7l0.4,0.2c5.6,3.2,12.5,3.2,18.1,0l0.4-0.2C33.6,31.3,37,25.3,37,18.8z"/>
		<linearGradient id="SVGID_2_" gradientUnits="userSpaceOnUse" x1="3.5069" y1="18.5735" x2="33.624" y2="18.5735">
			<stop  offset="0" style="stop-color:#FFE487"/>
			<stop  offset="0.419" style="stop-color:#D9AB17"/>
			<stop  offset="0.7123" style="stop-color:#FFF0CE"/>
			<stop  offset="1" style="stop-color:#E0C61C"/>
		</linearGradient>
		<path class="st2" d="M33.4,14.2c0.2-0.7,0.3-1.4,0.1-2.2c-0.2-0.7-0.5-1.4-1.1-1.9C31.8,9.4,31,9,30.1,8.9c-0.9-0.1-1.7,0-2.6,0.4
			c0.3-0.7,0.3-1.5,0.1-2.2c-0.2-0.8-0.6-1.4-1.1-2c-0.5-0.5-1-0.8-1.7-1.1c-0.6-0.2-1.3-0.3-1.9-0.2c-0.7,0.1-1.2,0.4-1.8,0.9
			l-2.6,2.6l-2.5-2.5c-0.6-0.6-1.2-0.9-1.9-1.2c-0.7-0.2-1.4-0.3-2.2-0.1c-0.7,0.2-1.4,0.5-1.9,1.1C9.4,5.4,9,6.2,8.9,7
			c-0.1,0.9,0,1.7,0.4,2.6C8.6,9.3,7.8,9.3,7.1,9.5c-0.8,0.2-1.4,0.6-2,1.1c-0.5,0.5-0.8,1-1.1,1.7c-0.2,0.6-0.3,1.3-0.2,1.9
			c0.1,0.7,0.4,1.2,0.9,1.8l2.6,2.6L4.9,21c-0.6,0.6-0.9,1.2-1.2,1.9c-0.2,0.7-0.3,1.4-0.1,2.2c0.2,0.7,0.5,1.4,1.1,1.9
			c0.7,0.7,1.5,1.1,2.4,1.3c0.9,0.1,1.7,0,2.6-0.4c-0.3,0.7-0.3,1.5-0.1,2.2c0.2,0.8,0.6,1.4,1.1,2c0.5,0.5,1,0.8,1.7,1.1
			c0.6,0.2,1.3,0.3,1.9,0.2c0.7-0.1,1.2-0.4,1.8-0.9l2.6-2.6l2.5,2.5c0.6,0.6,1.2,0.9,1.9,1.2c0.7,0.2,1.4,0.3,2.2,0.1
			c0.7-0.2,1.4-0.5,1.9-1.1c0.7-0.7,1.1-1.5,1.3-2.4c0.1-0.9,0-1.7-0.4-2.6c0.7,0.3,1.5,0.3,2.2,0.1c0.8-0.2,1.4-0.6,2-1.1
			c0.5-0.5,0.8-1,1.1-1.7c0.2-0.6,0.3-1.3,0.2-1.9c-0.1-0.7-0.4-1.2-0.9-1.8l-2.6-2.6l2.5-2.5C32.8,15.6,33.2,14.9,33.4,14.2z
			 M21.8,6.1c0.3-0.3,0.7-0.6,1.2-0.6c0.5-0.1,0.9,0,1.4,0.1c0.5,0.2,0.9,0.4,1.3,0.8c0.4,0.4,0.6,0.8,0.8,1.3
			c0.2,0.5,0.2,1,0.1,1.4c-0.1,0.5-0.3,0.9-0.7,1.3L22,14.1l-2.4-2.4l1.6-1.6l-1.8-1.8L21.8,6.1z M24.3,18.6l-5.8,5.8l-5.8-5.8
			l5.8-5.8L24.3,18.6z M17.9,10l0.7-0.7l0.7,0.7l-0.7,0.7L17.9,10z M10.2,7.3C10.4,6.8,10.6,6.3,11,6c0.4-0.4,0.8-0.6,1.3-0.8
			s1-0.2,1.5-0.1c0.5,0.1,0.9,0.3,1.3,0.7l2.5,2.5l-1.8,1.8l1.6,1.6L15,14.2L10.8,10c-0.4-0.4-0.6-0.8-0.7-1.3
			C10,8.2,10.1,7.8,10.2,7.3z M6.1,15.4c-0.3-0.3-0.6-0.7-0.6-1.2c-0.1-0.5,0-0.9,0.1-1.4c0.2-0.5,0.4-0.9,0.8-1.3
			c0.4-0.4,0.8-0.6,1.3-0.8c0.5-0.2,1-0.2,1.4-0.1c0.5,0.1,0.9,0.3,1.3,0.7l3.8,3.8l-2.4,2.4l-1.6-1.6l-1.8,1.8L6.1,15.4z
			 M10.6,18.6L10,19.3l-0.7-0.7l0.7-0.7L10.6,18.6z M8.7,27c-0.5,0.1-1,0-1.5-0.1c-0.5-0.2-0.9-0.4-1.3-0.8
			c-0.4-0.4-0.6-0.8-0.8-1.3c-0.1-0.5-0.2-1-0.1-1.5c0.1-0.5,0.3-0.9,0.7-1.3l2.5-2.5l1.8,1.8l1.6-1.6l2.5,2.5L10,26.4
			C9.6,26.7,9.2,26.9,8.7,27z M15.4,31.1c-0.3,0.3-0.7,0.6-1.2,0.6c-0.5,0.1-0.9,0-1.4-0.1c-0.5-0.2-0.9-0.4-1.3-0.8
			c-0.4-0.4-0.6-0.8-0.8-1.3c-0.2-0.5-0.2-1-0.1-1.4c0.1-0.5,0.3-0.9,0.7-1.3l3.8-3.8l2.4,2.4l-1.6,1.6l1.8,1.8L15.4,31.1z
			 M19.3,27.2l-0.7,0.7l-0.7-0.7l0.7-0.7L19.3,27.2z M26.9,29.9c-0.2,0.5-0.4,0.9-0.8,1.3c-0.4,0.4-0.8,0.6-1.3,0.8
			c-0.5,0.1-1,0.2-1.5,0.1c-0.5-0.1-0.9-0.3-1.3-0.7l-2.5-2.5l1.8-1.8l-1.6-1.6l2.5-2.5l4.2,4.2c0.4,0.4,0.6,0.8,0.7,1.3
			C27.1,28.9,27.1,29.4,26.9,29.9z M31.1,21.8c0.3,0.3,0.6,0.7,0.6,1.2c0.1,0.5,0,0.9-0.1,1.4c-0.2,0.5-0.4,0.9-0.8,1.3
			c-0.4,0.4-0.8,0.6-1.3,0.8c-0.5,0.2-1,0.2-1.4,0.1c-0.5-0.1-0.9-0.3-1.3-0.7L23,22l2.4-2.4l1.6,1.6l1.8-1.8L31.1,21.8z M26.5,18.6
			l0.7-0.7l0.7,0.7l-0.7,0.7L26.5,18.6z M32,13.8c-0.1,0.5-0.3,0.9-0.7,1.3l-2.5,2.5l-1.8-1.8l-1.6,1.6L22.9,15l4.2-4.2
			c0.4-0.4,0.8-0.6,1.3-0.7c0.5-0.1,1,0,1.5,0.1c0.5,0.2,0.9,0.4,1.3,0.8c0.4,0.4,0.6,0.8,0.8,1.3C32.1,12.8,32.1,13.3,32,13.8z"/>
		<g>
			<linearGradient id="SVGID_3_" gradientUnits="userSpaceOnUse" x1="17.2577" y1="19.8113" x2="19.7588" y2="19.8113">
				<stop  offset="0" style="stop-color:#FFE487"/>
				<stop  offset="0.419" style="stop-color:#D9AB17"/>
				<stop  offset="0.7123" style="stop-color:#FFF0CE"/>
				<stop  offset="1" style="stop-color:#E0C61C"/>
			</linearGradient>
			<path class="st3" d="M19.4,19.1c0-0.2-0.1-0.4-0.1-0.7c0,0,0,0,0,0c-0.5,0-1.1,0-1.6,0c0,0,0,0,0,0c-0.1,0.9-0.3,1.8-0.4,2.7
				c0.2-0.2,0.5-0.4,0.7-0.6c0.2,0.2,0.3,0.4,0.5,0.6c0.2-0.2,0.3-0.4,0.5-0.6c0.2,0.2,0.5,0.4,0.7,0.6c0,0,0,0,0,0
				c0-0.2-0.1-0.4-0.1-0.5c0-0.3-0.1-0.5-0.1-0.8C19.5,19.6,19.5,19.4,19.4,19.1z"/>
			<linearGradient id="SVGID_4_" gradientUnits="userSpaceOnUse" x1="16.3762" y1="16.3823" x2="19.1406" y2="16.3823">
				<stop  offset="0" style="stop-color:#FFE487"/>
				<stop  offset="0.419" style="stop-color:#D9AB17"/>
				<stop  offset="0.7123" style="stop-color:#FFF0CE"/>
				<stop  offset="1" style="stop-color:#E0C61C"/>
			</linearGradient>
			<path class="st4" d="M16.4,16.6c0,0.1,0.1,0.3,0.2,0.4c0.1,0.1,0.2,0.2,0.3,0.2c0.1,0,0.3,0,0.4,0c0.3-0.1,0.4-0.4,0.3-0.6
				c0-0.1-0.1-0.2-0.2-0.2c-0.1,0-0.2,0-0.3,0.2c0,0,0,0,0,0c0,0,0,0,0,0c0.1,0,0.1,0.1,0.1,0.1c0,0.1,0,0.1-0.1,0.1
				c-0.1,0-0.1,0-0.2-0.1c0-0.1-0.1-0.2,0-0.2c0.1-0.2,0.2-0.3,0.4-0.3c0.1,0,0.2,0,0.3,0.1c0.1,0.1,0.1,0.1,0.1,0.2
				c0,0.1,0.1,0.2,0.1,0.3c0,0.1,0,0.3,0,0.4c0,0.1,0,0.2,0,0.3c0.4,0,0.8,0,1.3,0c0,0,0,0,0,0c0-0.1,0-0.2,0-0.3
				c0-0.2,0-0.3-0.1-0.4c0-0.1-0.1-0.2-0.1-0.4c-0.1-0.2-0.2-0.3-0.3-0.5c-0.1-0.2-0.3-0.3-0.5-0.4c-0.2-0.1-0.3-0.1-0.5-0.1
				c-0.1,0-0.2,0-0.3,0c-0.2,0-0.3,0.1-0.4,0.2c-0.2,0.1-0.3,0.3-0.4,0.4C16.4,16.2,16.4,16.4,16.4,16.6z"/>
			<linearGradient id="SVGID_5_" gradientUnits="userSpaceOnUse" x1="17.3516" y1="17.9403" x2="19.6674" y2="17.9403">
				<stop  offset="0" style="stop-color:#FFE487"/>
				<stop  offset="0.419" style="stop-color:#D9AB17"/>
				<stop  offset="0.7123" style="stop-color:#FFF0CE"/>
				<stop  offset="1" style="stop-color:#E0C61C"/>
			</linearGradient>
			<path class="st5" d="M17.5,17.8c-0.1,0-0.2,0.1-0.2,0.2c0,0.1,0.1,0.1,0.2,0.1c0.3,0,0.7,0,1,0c0.2,0,0.5,0,0.7,0
				c0.1,0,0.2,0,0.3,0c0.1,0,0.2-0.1,0.2-0.2c0-0.1-0.1-0.1-0.2-0.1C18.8,17.8,18.2,17.8,17.5,17.8C17.5,17.8,17.5,17.8,17.5,17.8z"
				/>
			<linearGradient id="SVGID_6_" gradientUnits="userSpaceOnUse" x1="17.5128" y1="18.2805" x2="19.5018" y2="18.2805">
				<stop  offset="0" style="stop-color:#FFE487"/>
				<stop  offset="0.419" style="stop-color:#D9AB17"/>
				<stop  offset="0.7123" style="stop-color:#FFF0CE"/>
				<stop  offset="1" style="stop-color:#E0C61C"/>
			</linearGradient>
			<path class="st6" d="M19.4,18.4C19.4,18.4,19.4,18.4,19.4,18.4c0.1,0,0.1-0.1,0.1-0.1c0-0.1,0-0.1-0.1-0.1c-0.3,0-0.6,0-0.9,0
				c-0.3,0-0.6,0-0.9,0c0,0,0,0,0,0c0,0-0.1,0-0.1,0.1c0,0,0,0.1,0,0.1c0,0,0.1,0,0.1,0C18.2,18.4,18.8,18.4,19.4,18.4z"/>
			<linearGradient id="SVGID_7_" gradientUnits="userSpaceOnUse" x1="17.6112" y1="17.5987" x2="19.4026" y2="17.5987">
				<stop  offset="0" style="stop-color:#FFE487"/>
				<stop  offset="0.419" style="stop-color:#D9AB17"/>
				<stop  offset="0.7123" style="stop-color:#FFF0CE"/>
				<stop  offset="1" style="stop-color:#E0C61C"/>
			</linearGradient>
			<path class="st7" d="M17.7,17.5c-0.1,0-0.1,0-0.1,0.1c0,0.1,0,0.1,0.1,0.1c0.5,0,1,0,1.6,0c0,0,0,0,0,0c0.1,0,0.1-0.1,0.1-0.1
				c0-0.1,0-0.1-0.1-0.1c-0.3,0-0.5,0-0.8,0C18.2,17.5,18,17.5,17.7,17.5z"/>
		</g>
	</g>
</g>
</svg>
