<?xml version="1.0" encoding="utf-8"?>
<!-- Generator: Adobe Illustrator 25.2.1, SVG Export Plug-In . SVG Version: 6.00 Build 0)  -->
<svg version="1.1" id="Capa_1" xmlns="http://www.w3.org/2000/svg" xmlns:xlink="http://www.w3.org/1999/xlink" x="0px" y="0px"
	 viewBox="0 0 600 117.7" style="enable-background:new 0 0 600 117.7;" xml:space="preserve">
<style type="text/css">
	.st0{fill:url(#SVGID_1_);}
	.st1{fill:url(#SVGID_2_);}
	.st2{fill:url(#SVGID_3_);}
	.st3{fill:url(#SVGID_4_);}
	.st4{fill:url(#SVGID_5_);}
	.st5{fill:url(#SVGID_6_);}
	.st6{fill:url(#SVGID_7_);}
</style>
<g>
	<g>
		
			<linearGradient id="SVGID_1_" gradientUnits="userSpaceOnUse" x1="-11.8952" y1="125.8708" x2="108.7308" y2="5.2447" gradientTransform="matrix(1 0 0 -1 0 119.3756)">
			<stop  offset="0" style="stop-color:#0095C1"/>
			<stop  offset="1" style="stop-color:#3B3681"/>
		</linearGradient>
		<path class="st0" d="M107,78.9V39c0-6.8-3.6-13-9.5-16.4L63,2.6c-5.9-3.4-13.1-3.4-19,0l-34.5,20C3.6,25.9,0,32.1,0,39v39.9
			c0,6.8,3.6,13,9.5,16.4L44,115.2c5.9,3.4,13.1,3.4,19,0l34.5-19.9C103.4,91.9,107,85.7,107,78.9z"/>
		
			<linearGradient id="SVGID_2_" gradientUnits="userSpaceOnUse" x1="10.128" y1="60.4756" x2="97.108" y2="60.4756" gradientTransform="matrix(1 0 0 -1 0 119.3756)">
			<stop  offset="0" style="stop-color:#FFE487"/>
			<stop  offset="0.419" style="stop-color:#D9AB17"/>
			<stop  offset="0.7123" style="stop-color:#FFF0CE"/>
			<stop  offset="1" style="stop-color:#E0C61C"/>
		</linearGradient>
		<path class="st1" d="M96.5,46.2c0.6-2.1,0.7-4.1,0.3-6.2c-0.5-2.1-1.5-3.9-3.1-5.5c-2-2-4.2-3.2-6.8-3.6c-2.6-0.4-5,0-7.4,1.3
			c0.8-2.1,0.9-4.2,0.3-6.4s-1.7-4.1-3.3-5.7c-1.4-1.4-3-2.4-4.8-3.1s-3.7-0.9-5.6-0.6s-3.6,1.2-5.1,2.7l-7.4,7.4l-7.1-7.1
			c-1.6-1.6-3.5-2.7-5.5-3.4c-2.1-0.6-4.1-0.7-6.2-0.3c-2.1,0.5-3.9,1.5-5.5,3.1c-2,2-3.2,4.2-3.6,6.8s0,5,1.3,7.4
			c-2.1-0.8-4.2-0.9-6.4-0.3c-2.2,0.6-4.1,1.7-5.7,3.3c-1.4,1.4-2.4,3-3.1,4.8c-0.7,1.8-0.9,3.7-0.6,5.6c0.3,1.9,1.2,3.6,2.7,5.1
			l7.4,7.4l-7.1,7.1c-1.6,1.6-2.7,3.5-3.4,5.5s-0.7,4.1-0.3,6.2c0.5,2.1,1.5,3.9,3.1,5.5c2,2,4.2,3.2,6.8,3.6s5,0,7.4-1.3
			c-0.8,2.1-0.9,4.2-0.3,6.4c0.6,2.2,1.7,4.1,3.3,5.7c1.4,1.4,3,2.4,4.8,3.1c1.8,0.7,3.7,0.9,5.6,0.6c1.9-0.3,3.6-1.2,5.1-2.7
			l7.4-7.4l7.1,7.1c1.6,1.6,3.5,2.7,5.5,3.4c2.1,0.6,4.1,0.7,6.2,0.3c2.1-0.5,3.9-1.5,5.5-3.1c2-2,3.2-4.2,3.6-6.8
			c0.4-2.6,0-5-1.3-7.4c2.1,0.8,4.2,0.9,6.4,0.3c2.2-0.6,4.1-1.7,5.7-3.3c1.4-1.4,2.4-3,3.1-4.8s0.9-3.7,0.6-5.6s-1.2-3.6-2.7-5.1
			L86,58.8l7.1-7.1C94.8,50.1,95.9,48.2,96.5,46.2z M62.8,22.8c1-1,2.1-1.6,3.5-1.8c1.3-0.2,2.7-0.1,4,0.3c1.3,0.5,2.6,1.2,3.7,2.3
			c1,1,1.8,2.2,2.2,3.6c0.4,1.4,0.5,2.8,0.3,4.1c-0.2,1.4-0.9,2.6-1.9,3.6L63.6,46L56.8,39l4.8-4.8l-5.1-5.1L62.8,22.8z M70.2,58.8
			L53.6,75.5L37,58.8l16.6-16.6L70.2,58.8z M51.6,34l2-2l2,2l-2,2L51.6,34z M29.5,26.1c0.5-1.4,1.2-2.7,2.3-3.8
			c1.1-1.1,2.3-1.8,3.8-2.2c1.5-0.4,2.9-0.5,4.3-0.2c1.4,0.3,2.7,1,3.8,2l7.1,7.1l-5.1,5.1l4.8,4.8l-7.2,7.2L31.1,34
			c-1-1-1.7-2.3-1.9-3.7C28.9,28.9,29,27.5,29.5,26.1z M17.5,49.6c-1-1-1.6-2.1-1.8-3.5c-0.2-1.3-0.1-2.7,0.3-4
			c0.5-1.3,1.2-2.6,2.3-3.7c1-1,2.2-1.8,3.6-2.2s2.8-0.5,4.1-0.3c1.4,0.2,2.6,0.9,3.6,1.9l10.9,10.9l-6.8,6.8l-4.8-4.8L24,56
			L17.5,49.6z M30.7,58.8l-2,2l-2-2l2-2L30.7,58.8z M25.2,83.2c-1.4,0.2-2.8,0.1-4.2-0.3c-1.4-0.5-2.7-1.2-3.8-2.3
			c-1.1-1.1-1.8-2.3-2.2-3.8s-0.5-2.9-0.2-4.3s1-2.7,2-3.8l7.1-7.1l5.1,5.1l4.8-4.8l7.2,7.2L28.8,81.4
			C27.8,82.4,26.6,83.1,25.2,83.2z M44.4,95c-1,1-2.1,1.6-3.5,1.8c-1.3,0.2-2.7,0.1-4-0.3c-1.3-0.5-2.6-1.2-3.7-2.3
			c-1-1-1.8-2.2-2.2-3.6c-0.4-1.4-0.5-2.8-0.3-4.1c0.2-1.4,0.9-2.6,1.9-3.6L43.5,72l6.8,6.8l-4.8,4.8l5.1,5.1L44.4,95z M55.6,83.8
			l-2,2l-2-2l2-2L55.6,83.8z M77.7,91.6c-0.5,1.4-1.2,2.7-2.3,3.8c-1.1,1.1-2.3,1.8-3.8,2.2c-1.5,0.4-2.9,0.5-4.3,0.2s-2.7-1-3.8-2
			l-7.1-7.1l5.1-5.1l-4.8-4.8l7.2-7.2l12.2,12.2c1,1,1.7,2.3,1.9,3.7C78.3,88.7,78.2,90.2,77.7,91.6z M89.7,68.1
			c1,1,1.6,2.1,1.8,3.5c0.2,1.3,0.1,2.7-0.3,4c-0.5,1.3-1.2,2.6-2.3,3.7c-1,1-2.2,1.8-3.6,2.2c-1.4,0.4-2.8,0.5-4.1,0.3
			c-1.4-0.2-2.6-0.9-3.6-1.9l-11.1-11l6.8-6.8l4.8,4.8l5.1-5.1L89.7,68.1z M76.5,58.8l2-2l2,2l-2,2L76.5,58.8z M92.4,45.1
			c-0.3,1.4-1,2.7-2,3.8L83.3,56L78.2,51l-4.8,4.8l-7.2-7.2l12.2-12.2c1-1,2.3-1.7,3.7-1.9c1.4-0.2,2.8-0.1,4.2,0.3
			c1.4,0.5,2.7,1.2,3.8,2.3c1.1,1.1,1.8,2.3,2.2,3.8S92.7,43.8,92.4,45.1z"/>
		<g>
			
				<linearGradient id="SVGID_3_" gradientUnits="userSpaceOnUse" x1="49.8412" y1="56.9756" x2="57.0646" y2="56.9756" gradientTransform="matrix(1 0 0 -1 0 119.3756)">
				<stop  offset="0" style="stop-color:#FFE487"/>
				<stop  offset="0.419" style="stop-color:#D9AB17"/>
				<stop  offset="0.7123" style="stop-color:#FFF0CE"/>
				<stop  offset="1" style="stop-color:#E0C61C"/>
			</linearGradient>
			<path class="st2" d="M56.1,60.5c-0.1-0.6-0.2-1.3-0.3-1.9c0,0,0-0.1-0.1-0.1c-1.5,0-3.1,0-4.6,0c0,0,0,0-0.1,0
				c-0.4,2.6-0.8,5.2-1.2,7.9c0.7-0.5,1.4-1.1,2.1-1.6c0.5,0.5,1,1.1,1.5,1.6c0.5-0.5,1-1.1,1.5-1.6c0.7,0.5,1.4,1.1,2.1,1.6
				c0,0,0,0,0-0.1c-0.1-0.5-0.2-1-0.2-1.6c-0.1-0.7-0.2-1.5-0.3-2.2C56.4,61.8,56.2,61.1,56.1,60.5z"/>
			
				<linearGradient id="SVGID_4_" gradientUnits="userSpaceOnUse" x1="47.2953" y1="66.8256" x2="55.279" y2="66.8256" gradientTransform="matrix(1 0 0 -1 0 119.3756)">
				<stop  offset="0" style="stop-color:#FFE487"/>
				<stop  offset="0.419" style="stop-color:#D9AB17"/>
				<stop  offset="0.7123" style="stop-color:#FFF0CE"/>
				<stop  offset="1" style="stop-color:#E0C61C"/>
			</linearGradient>
			<path class="st3" d="M47.3,53.2c0.1,0.4,0.2,0.8,0.5,1.2c0.3,0.3,0.6,0.6,1,0.7c0.4,0.1,0.7,0.1,1.1,0c1-0.3,1.2-1.2,1-1.8
				c-0.1-0.3-0.3-0.6-0.7-0.6c-0.3-0.1-0.7,0.1-0.7,0.5l0,0l0,0c0.2,0,0.4,0.1,0.3,0.4c0,0.1-0.1,0.2-0.3,0.3c-0.2,0-0.4,0-0.5-0.2
				c0-0.4,0-0.7,0-0.9c0.2-0.5,0.6-0.8,1.1-0.9c0.4,0,0.7,0.1,0.9,0.3s0.3,0.3,0.4,0.6c0.1,0.3,0.2,0.5,0.3,0.8c0,0.4,0,0.8,0,1.1
				s-0.1,0.5-0.1,0.8c1.2,0,2.4,0,3.6,0c0,0,0,0,0-0.1c0-0.3,0-0.5,0-0.8c0-0.4-0.1-0.9-0.2-1.3c-0.1-0.3-0.2-0.7-0.3-1
				c-0.2-0.5-0.5-0.9-0.8-1.3c-0.4-0.5-0.9-0.9-1.5-1.1c-0.5-0.2-1-0.3-1.5-0.4c-0.3,0-0.7,0-1,0.1c-0.5,0.1-0.9,0.3-1.3,0.6
				c-0.5,0.3-0.8,0.7-1.1,1.2C47.3,52,47.2,52.5,47.3,53.2z"/>
			
				<linearGradient id="SVGID_5_" gradientUnits="userSpaceOnUse" x1="50.1123" y1="62.3256" x2="56.8004" y2="62.3256" gradientTransform="matrix(1 0 0 -1 0 119.3756)">
				<stop  offset="0" style="stop-color:#FFE487"/>
				<stop  offset="0.419" style="stop-color:#D9AB17"/>
				<stop  offset="0.7123" style="stop-color:#FFF0CE"/>
				<stop  offset="1" style="stop-color:#E0C61C"/>
			</linearGradient>
			<path class="st4" d="M50.6,56.5c-0.3,0-0.6,0.3-0.5,0.6c0.1,0.2,0.3,0.4,0.5,0.4c0.9,0,1.9,0,2.8,0c0.7,0,1.3,0,2,0
				c0.3,0,0.6,0,0.9,0c0.3,0,0.6-0.3,0.5-0.7c-0.1-0.2-0.3-0.3-0.5-0.3C54.4,56.5,52.5,56.5,50.6,56.5L50.6,56.5z"/>
			
				<linearGradient id="SVGID_6_" gradientUnits="userSpaceOnUse" x1="50.5779" y1="61.3256" x2="56.3221" y2="61.3256" gradientTransform="matrix(1 0 0 -1 0 119.3756)">
				<stop  offset="0" style="stop-color:#FFE487"/>
				<stop  offset="0.419" style="stop-color:#D9AB17"/>
				<stop  offset="0.7123" style="stop-color:#FFF0CE"/>
				<stop  offset="1" style="stop-color:#E0C61C"/>
			</linearGradient>
			<path class="st5" d="M56,58.3L56,58.3c0.2,0,0.4-0.2,0.3-0.3c0-0.2-0.1-0.3-0.3-0.3c-0.9,0-1.7,0-2.6,0c-0.8,0-1.7,0-2.5,0
				c0,0,0,0-0.1,0s-0.2,0.1-0.3,0.2c0,0.1,0,0.2,0.1,0.3s0.2,0.1,0.3,0.1C52.6,58.3,54.3,58.3,56,58.3z"/>
			
				<linearGradient id="SVGID_7_" gradientUnits="userSpaceOnUse" x1="50.8621" y1="63.3256" x2="56.0358" y2="63.3256" gradientTransform="matrix(1 0 0 -1 0 119.3756)">
				<stop  offset="0" style="stop-color:#FFE487"/>
				<stop  offset="0.419" style="stop-color:#D9AB17"/>
				<stop  offset="0.7123" style="stop-color:#FFF0CE"/>
				<stop  offset="1" style="stop-color:#E0C61C"/>
			</linearGradient>
			<path class="st6" d="M51.2,55.8c-0.2,0-0.3,0.1-0.3,0.3s0.1,0.3,0.3,0.3c1.5,0,3,0,4.5,0h0.1c0.2,0,0.3-0.2,0.2-0.3
				c0-0.2-0.1-0.3-0.3-0.3c-0.8,0-1.5,0-2.3,0C52.7,55.8,51.9,55.8,51.2,55.8z"/>
		</g>
	</g>
	<g>
		<g>
			<g>
				<path d="M161.9,72.2c0,3-0.8,5.5-2.3,7.5c-1.6,2-3.7,3.6-6.3,4.6c-2.6,1.1-5.5,1.6-8.6,1.6h-25.9V32.4h28.7c2.5,0,4.7,0.7,6.5,2
					s3.2,3,4.2,5.1s1.5,4.3,1.5,6.5c0,2.6-0.7,5-2,7.3s-3.2,4-5.7,5.2c3.1,0.9,5.5,2.5,7.3,4.9C161,65.8,161.9,68.7,161.9,72.2z
					 M129.1,41.3v13.5H143c1.2,0,2.2-0.3,3.2-0.8c1-0.6,1.7-1.3,2.3-2.3s0.9-2.2,0.9-3.5c0-1.4-0.3-2.6-0.8-3.6s-1.2-1.8-2.1-2.3
					c-0.9-0.6-1.9-0.9-3-0.9h-14.4V41.3z M151.4,70.2c0-1.4-0.3-2.6-0.8-3.7c-0.6-1.1-1.3-1.9-2.2-2.6c-0.9-0.7-2-1-3.2-1h-16v14.2
					h15.5c1.3,0,2.4-0.3,3.4-0.9s1.9-1.5,2.5-2.5C151.1,72.6,151.4,71.4,151.4,70.2z"/>
				<path d="M166.3,74.4c0-2.5,0.7-4.7,2.2-6.6s3.4-3.4,6-4.4c2.5-1.1,5.5-1.6,8.9-1.6c1.7,0,3.3,0.1,5.1,0.4
					c1.7,0.3,3.2,0.7,4.5,1.2v-2.3c0-2.4-0.7-4.3-2.2-5.6s-3.6-2-6.6-2c-2.2,0-4.3,0.4-6.3,1.1c-2,0.8-4,1.8-6.2,3.2l-3.2-6.6
					c2.6-1.8,5.2-3.1,8-3.9c2.7-0.8,5.6-1.2,8.6-1.2c5.6,0,10,1.4,13.2,4.1c3.1,2.8,4.7,6.7,4.7,11.9v12.4c0,1,0.2,1.8,0.6,2.2
					c0.4,0.4,1,0.7,1.8,0.8v8.2c-0.9,0.2-1.7,0.3-2.5,0.4c-0.7,0.1-1.3,0.1-1.8,0.1c-2,0-3.5-0.4-4.6-1.3c-1-0.9-1.6-2-1.9-3.3
					l-0.2-2c-1.8,2.2-3.9,3.9-6.5,5.1s-5.2,1.8-7.8,1.8s-5-0.5-7.1-1.6s-3.7-2.6-4.9-4.4C166.9,78.8,166.3,76.7,166.3,74.4z
					 M190.9,76.3c0.6-0.5,1-1.1,1.4-1.7s0.5-1.2,0.5-1.6v-3.9c-1.2-0.5-2.5-0.9-3.9-1.1c-1.4-0.3-2.7-0.4-4-0.4
					c-2.6,0-4.8,0.6-6.5,1.7s-2.5,2.6-2.5,4.4c0,1,0.3,1.9,0.8,2.8c0.6,0.9,1.3,1.6,2.4,2.2c1,0.5,2.3,0.8,3.8,0.8s3-0.3,4.5-0.9
					C188.8,77.9,190,77.2,190.9,76.3z"/>
				<path d="M226.9,86.7c-3.4,0-6.6-0.6-9.7-1.7c-3.1-1.1-5.7-2.7-7.9-4.9l3.7-6.6c2.3,1.9,4.6,3.3,6.9,4.2c2.3,0.9,4.5,1.4,6.6,1.4
					c2,0,3.5-0.3,4.7-1s1.8-1.7,1.8-3.1c0-1-0.3-1.8-1-2.3s-1.6-1-2.8-1.3c-1.2-0.4-2.7-0.8-4.5-1.3c-2.9-0.9-5.3-1.8-7.3-2.7
					S214,65.3,213,64c-1-1.4-1.5-3.1-1.5-5.3c0-2.6,0.7-4.8,2-6.7s3.2-3.3,5.6-4.4c2.4-1,5.2-1.6,8.4-1.6c2.8,0,5.5,0.4,8,1.3
					c2.5,0.9,4.8,2.3,6.9,4.3l-4.1,6.5c-2-1.6-3.9-2.8-5.7-3.5s-3.7-1.1-5.5-1.1c-1.1,0-2,0.1-3,0.4c-0.9,0.2-1.7,0.7-2.3,1.2
					c-0.6,0.6-0.9,1.4-0.9,2.4c0,0.9,0.3,1.6,0.8,2.2c0.5,0.5,1.3,1,2.4,1.4c1.1,0.4,2.4,0.8,4,1.3c3.2,0.9,5.8,1.8,8,2.7
					s3.8,2.1,4.9,3.5c1.1,1.4,1.7,3.3,1.7,5.6c0,3.9-1.4,6.9-4.3,9.1C235.6,85.6,231.7,86.7,226.9,86.7z"/>
				<path d="M268,86.7c-3.2,0-6-0.5-8.6-1.6s-4.8-2.5-6.6-4.4s-3.2-4-4.1-6.4c-1-2.4-1.4-4.9-1.4-7.7c0-3.7,0.8-7.1,2.5-10.2
					c1.7-3.1,4.1-5.6,7.2-7.5s6.8-2.8,11.1-2.8c4.3,0,7.9,0.9,11,2.8c3.1,1.9,5.4,4.3,7.1,7.4c1.7,3,2.5,6.4,2.5,9.9
					c0,0.6,0,1.3-0.1,1.8c0,0.6-0.1,1.1-0.2,1.5h-30.5c0.2,2.1,0.7,3.8,1.7,5.3c1,1.4,2.2,2.6,3.8,3.4c1.5,0.8,3.2,1.2,4.9,1.2
					c2.1,0,4-0.5,5.8-1.5s3-2.3,3.7-4l8.6,2.4c-0.9,2-2.2,3.8-4,5.4s-3.9,2.8-6.3,3.7C273.6,86.3,270.9,86.7,268,86.7z M257.6,63.3
					h20.7c-0.2-2-0.8-3.7-1.7-5.1c-0.9-1.4-2.1-2.6-3.7-3.4c-1.5-0.8-3.2-1.2-5.1-1.2c-1.8,0-3.5,0.4-4.9,1.2
					c-1.5,0.8-2.7,1.9-3.6,3.4C258.4,59.6,257.8,61.3,257.6,63.3z"/>
				<path d="M294.7,30.9h10.1v42.5c0,1.9,0.3,3.1,0.9,3.7s1.4,0.9,2.4,0.9c0.9,0,1.8-0.1,2.6-0.3c0.8-0.2,1.6-0.5,2.2-0.8l1.4,7.8
					c-1.4,0.7-2.9,1.2-4.7,1.5c-1.8,0.4-3.4,0.5-4.9,0.5c-3.2,0-5.6-0.8-7.4-2.5c-1.7-1.7-2.6-4.1-2.6-7.1V30.9z"/>
			</g>
			<g>
				<path d="M378.2,71.3c0,2.7-0.7,5-2,7.1c-1.4,2.1-3.2,3.7-5.5,4.9c-2.3,1.2-4.8,1.8-7.5,1.8h-25.3V31.5h25.8c2.5,0,4.7,0.7,6.5,2
					c1.8,1.3,3.2,3,4.2,5.1s1.5,4.3,1.5,6.5c0,2.7-0.7,5.1-2,7.4c-1.4,2.3-3.2,3.9-5.7,5.1c3.1,0.9,5.5,2.6,7.3,5.1
					C377.3,65.2,378.2,68,378.2,71.3z M343.2,36.1v19.8h18.4c1.8,0,3.3-0.5,4.7-1.4c1.4-0.9,2.4-2.1,3.2-3.7
					c0.8-1.5,1.2-3.1,1.2-4.8c0-1.8-0.4-3.5-1.1-4.9c-0.8-1.5-1.8-2.7-3.1-3.6c-1.3-0.9-2.8-1.4-4.5-1.4
					C362,36.1,343.2,36.1,343.2,36.1z M372.9,70.4c0-1.8-0.4-3.5-1.2-5c-0.8-1.5-1.9-2.8-3.3-3.7c-1.4-1-3-1.4-4.7-1.4h-20.5v20.3
					h20c1.8,0,3.4-0.5,4.9-1.4c1.5-1,2.6-2.2,3.5-3.7C372.5,73.8,372.9,72.2,372.9,70.4z"/>
				<path d="M384,73.9c0-2.4,0.7-4.6,2.1-6.3c1.4-1.7,3.4-3.2,5.8-4.1c2.5-1,5.4-1.5,8.6-1.5c1.9,0,3.9,0.2,6,0.5
					c2.1,0.3,3.9,0.8,5.5,1.4v-3.3c0-3.3-1-5.9-2.9-7.9c-1.9-2-4.7-2.9-8.1-2.9c-2.1,0-4.2,0.4-6.2,1.2s-4.2,1.9-6.4,3.4l-2-3.6
					c2.6-1.8,5.1-3.1,7.5-4c2.5-0.9,5-1.3,7.5-1.3c4.8,0,8.6,1.4,11.5,4.1c2.8,2.7,4.2,6.5,4.2,11.4v18.1c0,0.7,0.2,1.2,0.5,1.5
					s0.8,0.5,1.4,0.6v3.9c-0.6,0-1,0.1-1.4,0.2c-0.4,0-0.7,0-0.9,0c-1.3,0-2.2-0.5-2.9-1.2c-0.7-0.7-1-1.6-1.1-2.4l-0.1-2.9
					c-1.8,2.3-4.1,4-6.9,5.2s-5.7,1.8-8.6,1.8c-2.5,0-4.8-0.5-6.8-1.6s-3.6-2.5-4.8-4.4C384.5,78.1,384,76.1,384,73.9z M410.3,76.9
					c0.6-0.7,1-1.4,1.3-2s0.5-1.2,0.5-1.7v-5.7c-1.7-0.6-3.5-1.1-5.3-1.5s-3.7-0.5-5.5-0.5c-3.7,0-6.6,0.7-8.9,2.2
					c-2.3,1.4-3.4,3.4-3.4,5.9c0,1.4,0.4,2.8,1.1,4.1c0.8,1.3,1.9,2.3,3.3,3.1c1.4,0.8,3.2,1.2,5.1,1.2c2.5,0,4.8-0.5,6.9-1.4
					C407.5,79.6,409.1,78.4,410.3,76.9z"/>
				<path d="M461.3,85.1h-5.1V63.3c0-4.6-0.7-8-2-10.1c-1.4-2.1-3.5-3.2-6.4-3.2c-2,0-4,0.5-6,1.5s-3.7,2.3-5.2,4s-2.6,3.6-3.2,5.7
					v23.9h-5.1V46h4.7v8.9c1.1-1.9,2.4-3.6,4.2-5c1.7-1.4,3.6-2.5,5.8-3.3c2.2-0.8,4.4-1.2,6.7-1.2c2.2,0,4,0.4,5.5,1.2
					s2.7,1.9,3.6,3.4c0.9,1.5,1.6,3.3,2,5.3c0.4,2.1,0.6,4.4,0.6,6.9L461.3,85.1L461.3,85.1z"/>
				<path d="M487.4,85.9c-2.7,0-5.1-0.6-7.3-1.7s-4.1-2.6-5.6-4.5c-1.6-1.9-2.8-4.1-3.6-6.5c-0.9-2.4-1.3-5-1.3-7.6
					c0-2.8,0.5-5.3,1.4-7.8c1-2.4,2.3-4.6,4-6.5s3.7-3.4,6-4.4c2.3-1.1,4.7-1.6,7.4-1.6c3.1,0,5.9,0.8,8.5,2.4
					c2.6,1.6,4.6,3.6,6.1,6V46h4.6v55.2h-5.1V77C498.5,82.9,493.5,85.9,487.4,85.9z M489,81.3c2.1,0,3.9-0.4,5.6-1.2
					c1.7-0.8,3.2-1.9,4.5-3.3s2.4-2.9,3.3-4.6V60.1c-0.2-1.3-0.7-2.6-1.5-3.9c-0.9-1.2-1.9-2.3-3.2-3.3s-2.6-1.7-4.1-2.2
					s-2.9-0.8-4.3-0.8c-2.2,0-4.1,0.5-5.8,1.3c-1.7,0.9-3.3,2.1-4.6,3.6c-1.3,1.5-2.3,3.2-3,5.1c-0.7,1.9-1.1,3.8-1.1,5.8
					c0,2.8,0.6,5.4,1.8,7.8c1.2,2.4,2.9,4.3,5,5.7C483.7,80.6,486.2,81.3,489,81.3z"/>
				<path d="M518.4,69V46h5.1v22.1c0,4.5,0.8,7.8,2.3,10s3.8,3.3,6.8,3.3c2,0,4-0.4,5.8-1.3c1.9-0.9,3.6-2.1,5-3.8
					c1.5-1.6,2.6-3.5,3.3-5.7V46h5.1v33c0,0.7,0.2,1.2,0.5,1.5s0.8,0.5,1.4,0.6v4c-0.6,0-1.1,0.1-1.4,0.1c-0.4,0-0.7,0-1,0
					c-1-0.1-1.9-0.5-2.6-1.2c-0.7-0.7-1.1-1.6-1.2-2.6l-0.2-5.3c-1.7,3-4,5.4-7,7.1c-2.9,1.7-6.1,2.6-9.5,2.6
					c-4.1,0-7.2-1.4-9.4-4.3C519.5,78.7,518.4,74.5,518.4,69z"/>
				<path d="M580.6,85.9c-2.8,0-5.4-0.5-7.8-1.6c-2.4-1.1-4.5-2.6-6.3-4.4c-1.8-1.9-3.1-4-4.1-6.5s-1.5-5.1-1.5-7.9
					c0-3.6,0.8-7,2.5-10s4-5.5,7-7.3s6.3-2.7,10.1-2.7c3.9,0,7.3,0.9,10.2,2.8c2.9,1.8,5.2,4.3,6.8,7.3c1.7,3,2.5,6.3,2.5,9.9
					c0,0.4,0,0.8,0,1.2s0,0.7-0.1,0.9h-33.7c0.3,2.8,1,5.3,2.4,7.5c1.3,2.2,3.1,3.9,5.2,5.2c2.1,1.3,4.5,1.9,7,1.9
					c2.6,0,5-0.7,7.3-2s3.9-3,4.8-5.1l4.5,1.2c-0.8,1.9-2,3.5-3.7,5.1c-1.7,1.5-3.6,2.7-5.8,3.5C585.6,85.5,583.2,85.9,580.6,85.9z
					 M566.1,63.7h29.1c-0.2-2.8-1-5.3-2.3-7.5c-1.3-2.1-3.1-3.8-5.2-5c-2.1-1.2-4.5-1.8-7.1-1.8s-4.9,0.6-7,1.8s-3.8,2.9-5.2,5.1
					C567.1,58.4,566.3,60.9,566.1,63.7z"/>
			</g>
		</g>
	</g>
</g>
</svg>
